# xmcd
#
# Track frame offsets: 
#        150
#        21602
#        37903
#        55556
#        70617
#        84935
#        101998
#        122854
#        137662
#        158700
#        172883
#
# Disc length: 2560 seconds
#
# Revision: 7
# Processed by: cddbd v1.5.1PL0 Copyright (c) Steve Scherf et al.
# Submitted via: ExactAudioCopy v0.95a5
#
DISCID=8709fe0b
DTITLE=Alabama - Dancin' on the Boulevard
DYEAR=1997
DGENRE=Country
TTITLE0=Dancin', Shaggin' On The Boulevard
TTITLE1=Sad Lookin' Moon
TTITLE2=Anytime (I'm Your Man)
TTITLE3=She's Got That Look In Her Eyes
TTITLE4=My Girl
TTITLE5=Of Course I'm Alright
TTITLE6=I Just Couldn't Say No
TTITLE7=Is The Magic Still There
TTITLE8=Calling All Angels
TTITLE9=Hey Baby
TTITLE10=One More Time Around
EXTD=
EXTT0=
EXTT1=
EXTT2=
EXTT3=
EXTT4=
EXTT5=
EXTT6=
EXTT7=
EXTT8=
EXTT9=
EXTT10=
PLAYORDER=
